Coordinates
version=1
nRows=18
nColumns=38
inDegrees=no

Units are S.I. units (second, meters, Newtons, ...)
If the header above contains a line with 'inDegrees', this indicates whether rotational values are in degrees (yes) or radians (no).

endheader
time	pelvis_tilt	pelvis_list	pelvis_rotation	pelvis_tx	pelvis_ty	pelvis_tz	hip_flexion_r	hip_adduction_r	hip_rotation_r	knee_angle_r	ankle_angle_r	subtalar_angle_r	mtp_angle_r	hip_flexion_l	hip_adduction_l	hip_rotation_l	knee_angle_l	ankle_angle_l	subtalar_angle_l	mtp_angle_l	lumbar_extension	lumbar_bending	lumbar_rotation	arm_flex_r	arm_add_r	arm_rot_r	elbow_flex_r	pro_sup_r	wrist_flex_r	wrist_dev_r	arm_flex_l	arm_add_l	arm_rot_l	elbow_flex_l	pro_sup_l	wrist_flex_l	wrist_dev_l
2.975	-0.110503	0.0166174	-0.0283486	1.43346	0.987505	-0.484864	-0.177124	-0.0114064	0.0598126	0.133359	0.20537	0.0965263	-0.0117021	0.541587	-0.00625949	0.000161262	0.162414	-0.111787	-0.00208593	-0.00922108	-0.123163	-0.0318171	0.0527802	-0.036017	-0.259636	-0.110575	1.02243	1.12545	-0.00328011	0.000992806	-0.131695	-0.180713	-0.253602	0.517948	1.27687	-2.7407e-05	0.000466441
2.98	-0.111166	0.0178464	-0.0295875	1.44064	0.986667	-0.485408	-0.180451	-0.0139559	0.057144	0.140026	0.202989	0.0981866	-0.0117021	0.53963	-0.00453025	-0.000806722	0.165852	-0.113972	-0.00292095	-0.00922108	-0.120787	-0.0336526	0.0538212	-0.0371336	-0.259221	-0.111416	1.02381	1.12526	-0.00328011	0.000992806	-0.133934	-0.181022	-0.256092	0.516683	1.27688	-2.7407e-05	0.000466441
2.985	-0.111778	0.0192091	-0.0307287	1.4479	0.985883	-0.485977	-0.183532	-0.0166963	0.0543683	0.14735	0.200075	0.0996375	-0.0117021	0.537545	-0.00255548	-0.00150842	0.170986	-0.11593	-0.00393507	-0.00922108	-0.118353	-0.0356203	0.0546683	-0.0385026	-0.258534	-0.112469	1.02462	1.12512	-0.00328011	0.000992806	-0.136	-0.181366	-0.258426	0.515222	1.27686	-2.7407e-05	0.000466441
2.99	-0.112407	0.0207187	-0.0317162	1.45522	0.985148	-0.486577	-0.186296	-0.0196333	0.0514922	0.155329	0.196607	0.100849	-0.0117021	0.535398	-0.000303915	-0.00183271	0.177585	-0.117617	-0.00512778	-0.00922108	-0.115845	-0.037731	0.0552766	-0.0401117	-0.257558	-0.113749	1.02485	1.12503	-0.00328011	0.000992806	-0.137855	-0.18174	-0.260588	0.513565	1.2768	-2.7407e-05	0.000466441
2.995	-0.113126	0.0224097	-0.0324644	1.4626	0.984457	-0.487214	-0.18866	-0.022789	0.0484899	0.163962	0.192569	0.101803	-0.0117021	0.53329	0.00229191	-0.00167681	0.185405	-0.118982	-0.00649697	-0.00922108	-0.113243	-0.040017	0.0555672	-0.0419386	-0.256273	-0.115266	1.02448	1.12499	-0.00328011	0.000992806	-0.139454	-0.182142	-0.262559	0.511707	1.2767	-2.7407e-05	0.000466441
3	-0.113978	0.0243343	-0.0328822	1.47001	0.983808	-0.487896	-0.19054	-0.0262037	0.0453038	0.17325	0.187954	0.102486	-0.0117021	0.531349	0.00533644	-0.000957989	0.194214	-0.119971	-0.00804492	-0.00922108	-0.110534	-0.0425354	0.0554281	-0.043952	-0.25465	-0.117026	1.02349	1.12503	-0.00328011	0.000992806	-0.140754	-0.182575	-0.264326	0.509641	1.27656	-2.7407e-05	0.000466441
3.005	-0.114999	0.0265651	-0.0328515	1.47744	0.983206	-0.488632	-0.191867	-0.0299325	0.041851	0.183204	0.182757	0.102892	-0.0117021	0.529716	0.00895945	0.000373761	0.203828	-0.120524	-0.00977986	-0.00922108	-0.107715	-0.0453621	0.0547256	-0.0461146	-0.252656	-0.119022	1.02185	1.12516	-0.00328011	0.000992806	-0.141713	-0.183044	-0.265873	0.507366	1.2764	-2.7407e-05	0.000466441
3.01	-0.11621	0.0291832	-0.0322399	1.48489	0.982666	-0.489431	-0.192589	-0.0340357	0.0380368	0.193845	0.176976	0.10302	-0.0117021	0.528522	0.0132933	0.00232385	0.214122	-0.120579	-0.0117095	-0.00922108	-0.104802	-0.0485782	0.053325	-0.0483875	-0.25026	-0.12124	1.01955	1.1254	-0.00328011	0.000992806	-0.142301	-0.183559	-0.26719	0.504885	1.27623	-2.7407e-05	0.000466441
3.015	-0.117621	0.0322565	-0.0309242	1.49233	0.982207	-0.490305	-0.192677	-0.0385648	0.0337743	0.205213	0.170612	0.102868	-0.0117021	0.527868	0.0184451	0.00484994	0.225027	-0.120074	-0.0138333	-0.00922108	-0.101825	-0.0522513	0.0511135	-0.050735	-0.247437	-0.123657	1.01656	1.12577	-0.00328011	0.000992806	-0.142502	-0.184125	-0.268267	0.502215	1.27607	-2.7407e-05	0.000466441
3.02	-0.119205	0.0358221	-0.0288115	1.49976	0.981845	-0.49126	-0.192124	-0.0435482	0.029003	0.217376	0.163664	0.102433	-0.0117021	0.527802	0.02447	0.00786605	0.236506	-0.118946	-0.0161269	-0.00922108	-0.0988307	-0.0564147	0.0480218	-0.0531294	-0.244179	-0.126235	1.01288	1.12627	-0.00328011	0.000992806	-0.14232	-0.184744	-0.269103	0.499381	1.27593	-2.7407e-05	0.000466441
3.025	-0.120924	0.0398738	-0.0258346	1.50718	0.981595	-0.492305	-0.190935	-0.04898	0.0237007	0.230431	0.156137	0.101711	-0.0117021	0.528306	0.0313538	0.011255	0.248525	-0.117144	-0.018525	-0.00922108	-0.0958735	-0.0610516	0.0440369	-0.0555546	-0.240494	-0.128934	1.0085	1.12688	-0.00328011	0.000992806	-0.141781	-0.185406	-0.2697	0.496425	1.27584	-2.7407e-05	0.000466441
3.03	-0.122722	0.0443492	-0.0219948	1.51458	0.981469	-0.493438	-0.189124	-0.0548151	0.0178873	0.244509	0.148045	0.100696	-0.0117021	0.52929	0.0390065	0.0148868	0.261029	-0.114634	-0.0209108	-0.00922108	-0.0930158	-0.066087	0.0392048	-0.0580062	-0.236412	-0.131711	1.00343	1.12761	-0.00328011	0.000992806	-0.140932	-0.186096	-0.270063	0.493398	1.27587	-2.7407e-05	0.000466441
3.035	-0.12453	0.0491382	-0.0173647	1.52196	0.981473	-0.494656	-0.186706	-0.0609702	0.0116229	0.259772	0.139409	0.0993841	-0.0117021	0.530597	0.0472695	0.0186418	0.273921	-0.111408	-0.023126	-0.00922108	-0.0903225	-0.0713892	0.0336239	-0.0604893	-0.231984	-0.134527	0.997716	1.12843	-0.00328011	0.000992806	-0.139833	-0.186788	-0.270202	0.490357	1.27604	-2.7407e-05	0.000466441
3.04	-0.126266	0.0540965	-0.0120612	1.52932	0.98161	-0.495952	-0.183687	-0.0673328	0.0050011	0.276404	0.130253	0.0977715	-0.0117021	0.532023	0.0559323	0.0224277	0.287062	-0.107488	-0.0249909	-0.00922108	-0.0878582	-0.0767818	0.0274319	-0.0630144	-0.227275	-0.13735	0.991389	1.12933	-0.00328011	0.000992806	-0.138552	-0.187454	-0.270123	0.487362	1.2764	-2.7407e-05	0.000466441
3.045	-0.12785	0.0590575	-0.00624684	1.53667	0.981877	-0.497314	-0.180066	-0.0737762	-0.00186025	0.294595	0.120602	0.095859	-0.0117021	0.533335	0.0647568	0.0261846	0.30028	-0.102925	-0.0263303	-0.00922108	-0.0856832	-0.0820655	0.0207905	-0.0655923	-0.222358	-0.140158	0.984509	1.1303	-0.00328011	0.000992806	-0.137159	-0.188066	-0.269829	0.484472	1.27699	-2.7407e-05	0.000466441
3.05	-0.129197	0.0638568	-9.71179e-05	1.544	0.982266	-0.498728	-0.175823	-0.0801774	-0.00882412	0.314518	0.110464	0.0936479	-0.0117021	0.5343	0.073503	0.0298783	0.313376	-0.0977891	-0.0269986	-0.00922108	-0.0838469	-0.0870446	0.013872	-0.068229	-0.217306	-0.142938	0.977141	1.13133	-0.00328011	0.000992806	-0.135716	-0.188606	-0.269311	0.481742	1.27778	-2.7407e-05	0.000466441
3.055	-0.130242	0.0683552	0.00621004	1.55133	0.982764	-0.500179	-0.170927	-0.086435	-0.0157379	0.336303	0.099812	0.0911393	-0.0117021	0.534713	0.0819524	0.0334857	0.32615	-0.0921596	-0.0268966	-0.00922108	-0.0823789	-0.0915545	0.00684863	-0.070923	-0.212189	-0.145683	0.969352	1.13239	-0.00328011	0.000992806	-0.134277	-0.189064	-0.268559	0.479222	1.27876	-2.7407e-05	0.000466441
3.06	-0.130943	0.0724586	0.0124939	1.55865	0.983348	-0.501652	-0.165327	-0.0924838	-0.0224367	0.360007	0.0885685	0.0883356	-0.0117021	0.534415	0.0899267	0.036977	0.338409	-0.0861159	-0.0259781	-0.00922108	-0.0812784	-0.0954846	-0.000112648	-0.0736644	-0.207063	-0.148385	0.961207	1.13349	-0.00328011	0.000992806	-0.132886	-0.189449	-0.267563	0.476959	1.27988	-2.7407e-05	0.000466441
